<svg t="1721402141813" class="icon" viewBox="0 0 1024 1024" version="1.1" xmlns="http://www.w3.org/2000/svg" p-id="7337" width="24" height="24"><path d="M704 96c33.728 0 61.376 26.016 63.84 59.04l0.16 4.768V253.12l128 0.032v63.808h-64v515.328a95.84 95.84 0 0 1-90.368 95.552L736 928H288c-53.024 0-96-42.848-96-95.68V316.928H128V253.152h128V159.776c0-33.632 26.112-61.184 59.2-63.648L320 96h384z m-256 316.672h-64v318.976h64v-318.976z m192 0h-64v318.976h64v-318.976z m64-252.864H320V253.12h384V159.808z" fill="#757575" p-id="7338"></path></svg>