<svg t="1721365984349" class="icon" viewBox="0 0 1024 1024" version="1.1" xmlns="http://www.w3.org/2000/svg" p-id="7338" width="20" height="20"><path d="M903.537778 256.682667L657.635556 10.752A36.494222 36.494222 0 0 0 631.751111 0H146.289778c-20.224 0-36.579556 16.355556-36.579556 36.579556v950.840888c0 20.224 16.355556 36.579556 36.579556 36.579556h731.420444c20.252444 0 36.579556-16.355556 36.579556-36.579556V282.624c0-9.699556-3.896889-19.057778-10.752-25.941333z m-73.585778 42.752h-215.096889V84.337778l215.096889 215.096889z m2.048 642.275555H192V82.289778h345.144889v246.840889a48.014222 48.014222 0 0 0 48.014222 48.014222h246.840889v564.565333z m-283.420444-475.420444a9.159111 9.159111 0 0 0-9.159112-9.159111h-54.840888a9.159111 9.159111 0 0 0-9.159112 9.159111v123.448889h-123.420444a9.159111 9.159111 0 0 0-9.130667 9.102222v54.897778c0 5.006222 4.096 9.102222 9.130667 9.102222h123.448889v123.448889c0 5.034667 4.096 9.130667 9.102222 9.130666h54.897778a9.159111 9.159111 0 0 0 9.102222-9.130666v-123.448889h123.448889a9.159111 9.159111 0 0 0 9.159111-9.102222v-54.897778a9.159111 9.159111 0 0 0-9.159111-9.102222h-123.448889v-123.448889z" fill="#757575" p-id="7339"></path></svg>