<?xml version="1.0" standalone="no"?><!DOCTYPE svg PUBLIC "-//W3C//DTD SVG 1.1//EN" "http://www.w3.org/Graphics/SVG/1.1/DTD/svg11.dtd"><svg t="1722590804158" class="icon" viewBox="0 0 1024 1024" version="1.1" xmlns="http://www.w3.org/2000/svg" p-id="5742" width="20" height="20" xmlns:xlink="http://www.w3.org/1999/xlink"><path d="M987.420444 434.147556h-123.420444v-129.820445c0-20.224-16.355556-36.579556-36.579556-36.579555H467.427556L333.368889 139.52a9.329778 9.329778 0 0 0-6.257778-2.503111H36.551111C16.355556 137.016889 0 153.315556 0 173.568v676.579556c0 20.224 16.355556 36.579556 36.579556 36.579555H834.275556c14.876444 0 28.359111-9.045333 33.962666-22.869333l153.144889-379.448889a36.522667 36.522667 0 0 0-33.934222-50.289778zM82.289778 219.278222h215.438222l136.675556 130.759111h347.306666v84.110223H198.883556c-14.876444 0-28.359111 9.016889-33.962667 22.869333l-82.631111 204.8V219.278222z m726.044444 585.159111H108.572444l118.044445-292.579555h699.904l-118.186667 292.579555z" fill="#757575" p-id="5743" class="custom-cursor-on-hover"></path></svg>