<svg t="1721402688816" class="icon" viewBox="0 0 1024 1024" version="1.1" xmlns="http://www.w3.org/2000/svg" p-id="8561" width="24" height="24"><path d="M672 128a96 96 0 0 1 96 96v93.952h-64V224a32 32 0 0 0-32-32H352a32 32 0 0 0-32 32v253.92h544v448H160v-448h96V224a96 96 0 0 1 90.368-95.84L352 128z m128 413.952H224v320h576v-320z m-286.336 47.712a48 48 0 0 1 30.368 85.184L544 765.952h-64l-0.064-94.112a48 48 0 0 1 33.728-82.176z" fill="#757575" p-id="8562" class="custom-cursor-on-hover"></path></svg>